<?xml version="1.0" encoding="utf-8" ?>
  <svg xmlns="http://www.w3.org/2000/svg" xmlns:xlink="http://www.w3.org/1999/xlink" >
    <path fill="#E43228" d="M281.854 309.377C290.148 298.783 300.682 288.966 310.793 280.088C358.174 238.487 416.796 213.868 479.268 206.3C559.071 196.632 650.967 216.281 714.887 266.49C725.422 274.764 735.868 284.374 744.405 294.702C735.436 304.212 725.985 313.325 716.742 322.57L669.5 369.689C659.892 379.221 649.942 388.552 640.754 398.483Q639.201 396.977 637.61 395.51Q636.02 394.044 634.394 392.617Q632.768 391.19 631.106 389.804Q629.445 388.419 627.75 387.074Q626.055 385.73 624.327 384.429Q622.598 383.127 620.838 381.869Q619.078 380.611 617.288 379.397Q615.497 378.183 613.677 377.014Q611.856 375.846 610.007 374.722Q608.158 373.599 606.282 372.522Q604.406 371.445 602.503 370.415Q600.601 369.385 598.673 368.402Q596.746 367.42 594.795 366.486Q592.843 365.552 590.869 364.667Q588.895 363.781 586.9 362.946Q584.905 362.11 582.889 361.324Q580.873 360.538 578.839 359.802Q576.804 359.067 574.752 358.382Q572.7 357.697 570.631 357.064Q568.563 356.43 566.479 355.848Q564.396 355.266 562.298 354.737Q560.201 354.207 558.091 353.729Q555.98 353.252 553.859 352.827Q551.738 352.402 549.607 352.03Q547.476 351.658 545.336 351.339Q543.196 351.021 541.049 350.755Q538.902 350.49 536.749 350.278Q534.596 350.066 532.438 349.907Q530.281 349.749 528.12 349.645Q525.959 349.54 523.796 349.489Q521.633 349.438 519.47 349.441Q517.307 349.444 515.144 349.501C474.806 350.447 435.607 363.609 407.262 393.37C375.648 426.564 366.257 470.748 367.534 515.206C368.858 561.329 381.478 607.968 415.968 640.623C445.79 668.86 486.594 680.387 526.962 678.98C545.962 678.317 564.472 673.613 582.142 666.837C580.191 669.751 577.29 672.391 574.982 675.091Q565.855 685.658 556.873 696.349L488.697 778.631Q479.531 789.622 470.181 800.457C466.728 804.491 462.988 808.47 459.891 812.779C389.02 802.809 322.606 764.6 276.638 710.148C266.202 697.333 256.745 684.174 248.438 669.881C237.653 651.331 229.436 630.838 223.459 610.261C199.462 527.643 206.862 433.185 248.504 357.405Q252.006 350.971 255.852 344.737Q259.697 338.502 263.875 332.486Q268.053 326.469 272.551 320.687Q277.049 314.906 281.854 309.377Z"/>
    <path fill="#F1651D" d="M281.854 309.377C283.003 309.8 283.791 310.243 284.704 311.058C294.918 320.179 304.372 330.689 314.001 340.45C338.614 365.401 362.737 390.95 388.236 415.007L336.102 465.639C327.684 473.854 317.529 482.11 310.688 491.665C307.17 496.58 304.297 503.181 304.223 509.254C304.099 519.531 311.398 527.727 318.28 534.477L361.96 577.955C369.887 585.862 377.39 594.465 386.288 601.314C379.496 608.301 372.343 614.924 365.438 621.8L302.283 684.51C293.73 693.025 284.936 701.387 276.638 710.148C266.202 697.333 256.745 684.174 248.438 669.881C237.653 651.331 229.436 630.838 223.459 610.261C199.462 527.643 206.862 433.185 248.504 357.405Q252.006 350.971 255.852 344.737Q259.697 338.502 263.875 332.486Q268.053 326.469 272.551 320.687Q277.049 314.906 281.854 309.377Z"/>
    <path fill="#E43228" d="M248.504 357.405Q263.051 371.319 277.368 385.469C284.076 392.047 292.375 398.566 297.214 406.701Q298.09 408.206 298.767 409.81Q299.444 411.415 299.911 413.092Q300.378 414.769 300.628 416.493Q300.878 418.216 300.906 419.957C301.006 431.355 293.182 440.614 285.495 448.15C273.814 459.6 251.971 477.996 244.595 491.547Q244.065 492.518 243.595 493.519Q243.125 494.52 242.716 495.547Q242.307 496.574 241.96 497.624Q241.613 498.674 241.33 499.744Q241.047 500.813 240.829 501.897Q240.611 502.981 240.458 504.076Q240.306 505.171 240.219 506.274Q240.133 507.376 240.113 508.482C239.846 522.525 247.243 533.59 256.733 543.258Q267.481 553.999 278.358 564.609C289.167 575.234 301.813 585.378 301.633 601.932C301.455 618.382 286.762 629.351 276.051 639.88C270.002 645.826 264.141 651.96 258.102 657.915C254.789 661.181 249.56 665.232 248.438 669.881C237.653 651.331 229.436 630.838 223.459 610.261C199.462 527.643 206.862 433.185 248.504 357.405Z"/>
    <path fill="#FEC038" d="M807.01 466.001L808.156 466.14C809.491 469.851 808.21 546.34 808.581 558.16C807.941 580.03 808.452 602.052 808.454 623.937L808.438 744.55L808.474 789.64C808.48 796.955 809.25 805.34 808.07 812.519L665.034 812.549C665.255 791.611 665.025 770.64 664.989 749.7C646.936 767.006 630.868 780.637 608.367 792.043L600.185 795.958C573.623 807.876 544.544 815.394 515.327 815.966C496.814 816.038 478.205 815.875 459.891 812.779C462.988 808.47 466.728 804.491 470.181 800.457Q479.531 789.622 488.697 778.631L556.873 696.349Q565.855 685.658 574.982 675.091C577.29 672.391 580.191 669.751 582.142 666.837C585.663 664.823 589.581 663.312 593.191 661.417Q599.407 658.12 605.236 654.179Q611.064 650.239 616.44 645.699C629.691 634.335 643.539 617.216 644.882 599.065C645.072 596.495 645.471 591.946 643.367 590.09C641.703 588.623 638.578 588.978 636.502 588.977L566.002 588.972L528.898 589.022Q528.778 569.087 528.964 549.153C528.617 539.307 528.881 529.361 528.893 519.507L528.965 466.109L594.43 466.037L664.531 466.017C689.423 466.024 714.399 465.593 739.281 466.092C761.854 465.791 784.437 466.228 807.01 466.001Z"/>
    <path fill="#FA8C22" d="M664.531 466.017C689.423 466.024 714.399 465.593 739.281 466.092C761.854 465.791 784.437 466.228 807.01 466.001L807.243 466.962C784.519 495.896 760.496 524.029 737.045 552.387L619.968 693.366L555.146 770.667C543.608 784.507 531.048 801.015 518.764 813.821C517.678 814.953 516.782 815.404 515.327 815.966C496.814 816.038 478.205 815.875 459.891 812.779C462.988 808.47 466.728 804.491 470.181 800.457Q479.531 789.622 488.697 778.631L556.873 696.349Q565.855 685.658 574.982 675.091C577.29 672.391 580.191 669.751 582.142 666.837C585.663 664.823 589.581 663.312 593.191 661.417Q599.407 658.12 605.236 654.179Q611.064 650.239 616.44 645.699C629.691 634.335 643.539 617.216 644.882 599.065C645.072 596.495 645.471 591.946 643.367 590.09C641.703 588.623 638.578 588.978 636.502 588.977L566.002 588.972L528.898 589.022Q528.778 569.087 528.964 549.153C528.617 539.307 528.881 529.361 528.893 519.507L528.965 466.109L594.43 466.037L664.531 466.017Z"/>
    <path fill="#FA8C22" d="M594.43 466.037L664.531 466.017C663.89 467.773 662.931 469.105 661.811 470.581C654.723 479.926 570.354 586.659 567.457 588.486C566.953 588.803 566.548 588.853 566.002 588.972L528.898 589.022Q528.778 569.087 528.964 549.153C528.617 539.307 528.881 529.361 528.893 519.507L528.965 466.109L594.43 466.037Z"/>
    <path fill="#E43228" d="M528.965 466.109L594.43 466.037C593.447 466.259 592.893 466.457 592.189 467.217C588.933 470.732 586.098 474.925 583.145 478.718L564.685 502.572L542.01 532.182C537.672 537.812 533.055 543.344 528.964 549.153C528.617 539.307 528.881 529.361 528.893 519.507L528.965 466.109Z"/>
    <path fill="#E43228" d="M664.531 466.017C689.423 466.024 714.399 465.593 739.281 466.092C737.301 466.464 735.824 466.432 734.321 467.924C730.598 471.617 727.385 476.268 724.102 480.384L705.902 503.164C682.934 531.822 660.33 561.041 636.502 588.977L566.002 588.972C566.548 588.853 566.953 588.803 567.457 588.486C570.354 586.659 654.723 479.926 661.811 470.581C662.931 469.105 663.89 467.773 664.531 466.017Z"/>
    <path fill="#F1651D" d="M807.01 466.001L808.156 466.14C809.491 469.851 808.21 546.34 808.581 558.16C807.941 580.03 808.452 602.052 808.454 623.937L808.438 744.55L808.474 789.64C808.48 796.955 809.25 805.34 808.07 812.519C807.179 805.377 807.998 797.24 808.017 789.985L808.054 740.721L807.941 563.705C793.533 579.9 779.759 596.698 765.699 613.197Q735.006 648.965 703.869 684.348C692.14 697.639 680.501 711.029 668.226 723.822C651.103 741.666 633.4 758.959 616.03 776.564C612.351 780.291 599.405 791.857 597.52 795.739C598.353 795.913 599.329 795.893 600.185 795.958C573.623 807.876 544.544 815.394 515.327 815.966C516.782 815.404 517.678 814.953 518.764 813.821C531.048 801.015 543.608 784.507 555.146 770.667L619.968 693.366L737.045 552.387C760.496 524.029 784.519 495.896 807.243 466.962L807.01 466.001Z"/>
  </svg>
