<svg width="24" height="24" viewBox="0 0 600 613" fill="none" xmlns="http://www.w3.org/2000/svg">
<path d="M72.854 106.377C81.148 95.783 91.682 85.966 101.793 77.088C149.174 35.487 207.796 10.868 270.268 3.30001C350.071 -6.368 441.967 13.281 505.887 63.49C516.422 71.764 526.868 81.374 535.405 91.702C526.436 101.212 516.985 110.325 507.742 119.57L460.5 166.689C450.892 176.221 440.942 185.552 431.754 195.483C430.719 194.479 429.671 193.488 428.61 192.51C427.55 191.533 426.478 190.568 425.394 189.617C424.31 188.666 423.214 187.728 422.106 186.804C420.999 185.881 419.88 184.971 418.75 184.074C417.62 183.178 416.479 182.296 415.327 181.429C414.174 180.561 413.011 179.708 411.838 178.869C410.665 178.03 409.481 177.206 408.288 176.397C407.094 175.588 405.89 174.793 404.677 174.014C403.463 173.235 402.24 172.471 401.007 171.722C399.774 170.973 398.533 170.24 397.282 169.522C396.031 168.804 394.772 168.102 393.503 167.415C392.235 166.728 390.958 166.057 389.673 165.402C388.388 164.747 387.096 164.109 385.795 163.486C384.494 162.863 383.185 162.257 381.869 161.667C380.553 161.076 379.23 160.503 377.9 159.946C376.57 159.389 375.233 158.848 373.889 158.324C372.545 157.8 371.195 157.293 369.839 156.802C368.482 156.312 367.12 155.839 365.752 155.382C364.384 154.925 363.01 154.486 361.631 154.064C360.252 153.641 358.868 153.236 357.479 152.848C356.09 152.46 354.697 152.09 353.298 151.737C351.9 151.384 350.498 151.048 349.091 150.729C347.684 150.411 346.273 150.11 344.859 149.827C343.445 149.544 342.028 149.278 340.607 149.03C339.186 148.782 337.763 148.552 336.336 148.339C334.909 148.127 333.48 147.932 332.049 147.755C330.618 147.578 329.184 147.419 327.749 147.278C326.314 147.137 324.877 147.013 323.438 146.907C322 146.802 320.561 146.714 319.12 146.645C317.679 146.575 316.238 146.523 314.796 146.489C313.354 146.455 311.912 146.439 310.47 146.441C309.028 146.443 307.586 146.463 306.144 146.501C265.806 147.447 226.607 160.609 198.262 190.37C166.648 223.564 157.257 267.748 158.534 312.206C159.858 358.329 172.478 404.968 206.968 437.623C236.79 465.86 277.594 477.387 317.962 475.98C336.962 475.317 355.472 470.613 373.142 463.837C371.191 466.751 368.29 469.391 365.982 472.091C359.897 479.136 353.861 486.222 347.873 493.349L279.697 575.631C273.586 582.958 267.414 590.234 261.181 597.457C257.728 601.491 253.988 605.47 250.891 609.779C180.02 599.809 113.606 561.6 67.638 507.148C57.202 494.333 47.745 481.174 39.438 466.881C28.653 448.331 20.436 427.838 14.459 407.261C-9.538 324.643 -2.138 230.185 39.504 154.405C41.8387 150.116 44.288 145.893 46.852 141.737C49.4153 137.58 52.0897 133.497 54.875 129.486C57.6603 125.475 60.5523 121.542 63.551 117.687C66.5497 113.833 69.6507 110.063 72.854 106.377Z" fill="#E43228"/>
<path d="M72.854 106.377C74.003 106.8 74.791 107.243 75.704 108.058C85.918 117.179 95.372 127.689 105.001 137.45C129.614 162.401 153.737 187.95 179.236 212.007L127.102 262.639C118.684 270.854 108.529 279.11 101.688 288.665C98.17 293.58 95.297 300.181 95.223 306.254C95.099 316.531 102.398 324.727 109.28 331.477L152.96 374.955C160.887 382.862 168.39 391.465 177.288 398.314C170.496 405.301 163.343 411.924 156.438 418.8L93.283 481.51C84.73 490.025 75.936 498.387 67.638 507.148C57.202 494.333 47.745 481.174 39.438 466.881C28.653 448.331 20.436 427.838 14.459 407.261C-9.538 324.643 -2.138 230.185 39.504 154.405C41.8387 150.116 44.288 145.893 46.852 141.737C49.4153 137.58 52.0897 133.497 54.875 129.486C57.6603 125.475 60.5523 121.542 63.551 117.687C66.5497 113.833 69.6507 110.063 72.854 106.377Z" fill="#F1651D"/>
<path d="M39.504 154.405C49.202 163.681 58.8233 173.036 68.368 182.469C75.076 189.047 83.375 195.566 88.214 203.701C88.798 204.704 89.3157 205.741 89.767 206.81C90.2183 207.88 90.5997 208.974 90.911 210.092C91.2223 211.21 91.4613 212.344 91.628 213.493C91.7947 214.642 91.8873 215.796 91.906 216.957C92.006 228.355 84.182 237.614 76.495 245.15C64.814 256.6 42.971 274.996 35.595 288.547C35.2417 289.194 34.9083 289.852 34.595 290.519C34.2817 291.186 33.9887 291.862 33.716 292.547C33.4433 293.232 33.1913 293.924 32.96 294.624C32.7287 295.324 32.5187 296.031 32.33 296.744C32.1413 297.457 31.9743 298.174 31.829 298.897C31.6837 299.62 31.56 300.346 31.458 301.076C31.3567 301.806 31.277 302.539 31.219 303.274C31.1617 304.009 31.1263 304.745 31.113 305.482C30.846 319.525 38.243 330.59 47.733 340.258C54.8983 347.419 62.1067 354.536 69.358 361.609C80.167 372.234 92.813 382.378 92.633 398.932C92.455 415.382 77.762 426.351 67.051 436.88C61.002 442.826 55.141 448.96 49.102 454.915C45.789 458.181 40.56 462.232 39.438 466.881C28.653 448.331 20.436 427.838 14.459 407.261C-9.538 324.643 -2.138 230.185 39.504 154.405Z" fill="#E43228"/>
<path d="M598.01 263.001L599.156 263.14C600.491 266.851 599.21 343.34 599.581 355.16C598.941 377.03 599.452 399.052 599.454 420.937L599.438 541.55L599.474 586.64C599.48 593.955 600.25 602.34 599.07 609.519L456.034 609.549C456.255 588.611 456.025 567.64 455.989 546.7C437.936 564.006 421.868 577.637 399.367 589.043L391.185 592.958C364.623 604.876 335.544 612.394 306.327 612.966C287.814 613.038 269.205 612.875 250.891 609.779C253.988 605.47 257.728 601.491 261.181 597.457C267.414 590.234 273.586 582.958 279.697 575.631L347.873 493.349C353.861 486.222 359.897 479.136 365.982 472.091C368.29 469.391 371.191 466.751 373.142 463.837C376.663 461.823 380.581 460.312 384.191 458.417C388.335 456.219 392.35 453.806 396.236 451.179C400.121 448.552 403.856 445.726 407.44 442.699C420.691 431.335 434.539 414.216 435.882 396.065C436.072 393.495 436.471 388.946 434.367 387.09C432.703 385.623 429.578 385.978 427.502 385.977L357.002 385.972L319.898 386.022C319.818 372.732 319.84 359.442 319.964 346.153C319.617 336.307 319.881 326.361 319.893 316.507L319.965 263.109L385.43 263.037L455.531 263.017C480.423 263.024 505.399 262.593 530.281 263.092C552.854 262.791 575.437 263.228 598.01 263.001Z" fill="#FEC038"/>
<path d="M455.531 263.017C480.423 263.024 505.399 262.593 530.281 263.092C552.854 262.791 575.437 263.228 598.01 263.001L598.243 263.962C575.519 292.896 551.496 321.029 528.045 349.387L410.968 490.366L346.146 567.667C334.608 581.507 322.048 598.015 309.764 610.821C308.678 611.953 307.782 612.404 306.327 612.966C287.814 613.038 269.205 612.875 250.891 609.779C253.988 605.47 257.728 601.491 261.181 597.457C267.414 590.234 273.586 582.958 279.697 575.631L347.873 493.349C353.861 486.222 359.897 479.136 365.982 472.091C368.29 469.391 371.191 466.751 373.142 463.837C376.663 461.823 380.581 460.312 384.191 458.417C388.335 456.219 392.35 453.806 396.236 451.179C400.121 448.552 403.856 445.726 407.44 442.699C420.691 431.335 434.539 414.216 435.882 396.065C436.072 393.495 436.471 388.946 434.367 387.09C432.703 385.623 429.578 385.978 427.502 385.977L357.002 385.972L319.898 386.022C319.818 372.732 319.84 359.442 319.964 346.153C319.617 336.307 319.881 326.361 319.893 316.507L319.965 263.109L385.43 263.037L455.531 263.017Z" fill="#FA8C22"/>
<path d="M385.43 263.037L455.531 263.017C454.89 264.773 453.931 266.105 452.811 267.581C445.723 276.926 361.354 383.659 358.457 385.486C357.953 385.803 357.548 385.853 357.002 385.972L319.898 386.022C319.818 372.732 319.84 359.442 319.964 346.153C319.617 336.307 319.881 326.361 319.893 316.507L319.965 263.109L385.43 263.037Z" fill="#FA8C22"/>
<path d="M319.965 263.109L385.43 263.037C384.447 263.259 383.893 263.457 383.189 264.217C379.933 267.732 377.098 271.925 374.145 275.718L355.685 299.572L333.01 329.182C328.672 334.812 324.055 340.344 319.964 346.153C319.617 336.307 319.881 326.361 319.893 316.507L319.965 263.109Z" fill="#E43228"/>
<path d="M455.531 263.017C480.423 263.024 505.399 262.593 530.281 263.092C528.301 263.464 526.824 263.432 525.321 264.924C521.598 268.617 518.385 273.268 515.102 277.384L496.902 300.164C473.934 328.822 451.33 358.041 427.502 385.977L357.002 385.972C357.548 385.853 357.953 385.803 358.457 385.486C361.354 383.659 445.723 276.926 452.811 267.581C453.931 266.105 454.89 264.773 455.531 263.017Z" fill="#E43228"/>
<path d="M598.01 263.001L599.156 263.14C600.491 266.851 599.21 343.34 599.581 355.16C598.941 377.03 599.452 399.052 599.454 420.937L599.438 541.55L599.474 586.64C599.48 593.955 600.25 602.34 599.07 609.519C598.179 602.377 598.998 594.24 599.017 586.985L599.054 537.721L598.941 360.705C584.533 376.9 570.759 393.698 556.699 410.197C536.237 434.042 515.627 457.759 494.869 481.348C483.14 494.639 471.501 508.029 459.226 520.822C442.103 538.666 424.4 555.959 407.03 573.564C403.351 577.291 390.405 588.857 388.52 592.739C389.353 592.913 390.329 592.893 391.185 592.958C364.623 604.876 335.544 612.394 306.327 612.966C307.782 612.404 308.678 611.953 309.764 610.821C322.048 598.015 334.608 581.507 346.146 567.667L410.968 490.366L528.045 349.387C551.496 321.029 575.519 292.896 598.243 263.962L598.01 263.001Z" fill="#F1651D"/>
</svg>
